<?xml version="1.0" encoding="utf-8"?>
<!-- Generator: Adobe Illustrator 25.0.0, SVG Export Plug-In . SVG Version: 6.00 Build 0)  -->
<svg version="1.1" id="Layer_1" xmlns="http://www.w3.org/2000/svg" xmlns:xlink="http://www.w3.org/1999/xlink" x="0px" y="0px"
	 viewBox="0 0 612 365.3" style="enable-background:new 0 0 612 365.3;" xml:space="preserve">
<style type="text/css">
	.st0{fill:#887272;}
	.st1{fill:#070707;}
	.st2{fill:#131313;}
	.st3{fill:#090808;}
	.st4{fill:#121212;}
	.st5{fill:#020202;}
	.st6{fill:#570809;}
	.st7{fill:#D70808;}
	.st8{fill:#890808;}
	.st9{fill:#A82020;}
	.st10{fill:#AC2A2E;}
	.st11{fill:#772124;}
	.st12{fill:#390C0D;}
	.st13{fill:#180A0A;}
</style>
<g>
	<path class="st0" d="M194.9,150.8c0.6,1.7-0.3,3-0.3,4.9c-1.6-0.2-3.3-0.4-5.1-0.6C190.1,151.8,193,152,194.9,150.8z"/>
	<path class="st1" d="M601.2,180.6c-0.2,31.8-24.6,57-55.1,56.9c-30.2-0.1-54.7-26.1-54.4-57.7c0.3-32.1,24.9-57.1,55.9-56.9
		C577.1,123.1,601.3,149.1,601.2,180.6z M589.1,179.8c-0.1-24.9-19.3-45.1-42.8-45.1c-23.4,0-42.5,20.4-42.6,45.4
		c0,25,19.8,45.9,43.2,45.6C570.2,225.3,589.2,204.6,589.1,179.8z"/>
	<path class="st2" d="M99.5,167.7c0-11.3,0-22.5,0-33.8c0-4.1-1.5-8.4,6.1-8.4c7.1,0,6.4,3.5,6.4,8.1c0,22.8-0.2,45.6,0.3,68.4
		c0.3,13.6,8.2,22.3,20.9,24.4c14.9,2.5,28.5-7.7,28.9-22.8c0.7-23.8,0.6-47.5,0.5-71.3c0-5,1.2-6.5,6.4-6.6
		c5.4-0.1,5.8,2.1,5.8,6.5c-0.1,22.8,0.1,45.6-0.1,68.4c-0.1,18.6-10.9,32.9-27.5,37.1c-16.8,4.2-34.1-2.8-42.6-17
		c-5.3-8.9-4.6-18.9-5.1-28.5C99.2,183.9,99.5,175.8,99.5,167.7z"/>
	<path class="st3" d="M329.8,170.9c7-16.9,14-33.8,21.6-51.9c7.8,19.1,15.2,37,22.5,54.9c7.4,18.1,14.8,36.1,21.9,54.3
		c0.8,2,5,5.9,0.4,6.9c-3.6,0.8-9.5,3.5-12-2.9c-3-7.5-6.2-14.9-8.8-22.5c-1.5-4.5-4-5.8-8.6-5.7c-10.5,0.3-21.1,0.3-31.6,0
		c-4.4-0.1-7.1,0.7-8.6,5.5c-2.2,7-5.4,13.6-8.2,20.4c-2,4.8-9.2,7.7-13.5,5.5c-2.6-1.3-0.6-2.8-0.1-4.2
		c3.3-9.7,12.1-30.8,12.1-30.8c1.5-4.2,3.1-8.4,4.6-12.6C326.2,183.2,326.6,176.4,329.8,170.9z M335.6,189.4
		c-1.4,1.7-1.9,2.9,1.1,2.9c9,0,18.1-0.1,27.1,0.1c4,0.1,3.8-1.8,2.7-4.4c-5-12.5-10-25-15.6-39c-3.5,9.3-6.5,17.2-9.4,25.1
		C338.7,178.8,336.6,183.9,335.6,189.4z"/>
	<path class="st2" d="M30.3,180.9c0-16.4,0.2-32.8-0.1-49.2c-0.1-5,1.5-6.3,6.2-6c9,0.5,18.1-0.6,27.1,1.5
		c14,3.3,22.7,15.6,22.2,31.3C85.2,174,75.4,185.6,61,187.7c-3.6,0.5-7.4,1.1-11,0.7c-5.9-0.6-8.1,1.1-7.8,7.5
		c0.6,11.7-0.1,23.5,0.3,35.2c0.2,4.9-1.7,5.6-5.9,5.6c-4.3,0-6.5-0.5-6.4-5.8C30.6,214.2,30.3,197.5,30.3,180.9z M49.4,137.7
		c-5.2-1.3-7.8,0.4-7.2,7.4c0.7,8.7,0.1,17.5,0.2,26.3c0,1.7-0.8,3.8,1.8,4.9c11.2,4.7,27.8-4.6,29.3-16.6
		C75.2,145.8,67.6,138.6,49.4,137.7z"/>
	<path class="st4" d="M427,186.6c0,14-0.2,27.9,0.1,41.9c0.1,5-0.5,7.4-6.5,7.4c-5.8-0.1-6.1-2.6-6.1-7.1
		c0.1-28.4-0.1-56.8,0.2-85.2c0.1-5.8-1.5-7.9-7.3-7.2c-3.6,0.5-7.4-0.4-11,0.2c-7.6,1.4-7.6-3-7.4-8.4c0.2-3,1.5-3.6,4.1-3.6
		c18.4,0.1,36.7,0.2,55.1,0c5.7-0.1,3.9,3.7,4,6.5c0.2,2.8,1,6-4,5.6c-4.6-0.4-9.4,0.4-13.9-0.2c-6.5-0.8-7.6,1.9-7.4,7.7
		C427.3,158.2,427,172.4,427,186.6z"/>
	<path class="st5" d="M464,179.5c0-15.9,0.1-31.8-0.1-47.7c0-4.6-0.2-7.6,6.2-7.5c5.9,0.1,5.9,2.8,5.9,7.1
		c-0.1,32.5-0.2,65.1,0,97.6c0,5-1.1,6.7-6.4,6.7c-5.1,0-5.9-1.8-5.9-6.3C464.1,212.7,464,196.1,464,179.5z"/>
	<path class="st6" d="M281.2,299.5c-0.5,16.1-0.9,32.3-1.4,48.4c-0.7,0-1.4,0-2.2,0.1c-0.6-6.3-1.2-12.6-1.8-18.9
		c-1.5-16.8-3.7-33.6-4.4-50.4c-0.3-8-3.2-11.5-10.7-11.9c0.1-3.2,0.2-6.5,0.3-9.7c4.3,0.9,8.6,1.8,12.9,2.7
		c0.3,1.9,0.4,3.8,0.9,5.6C278.1,276.6,277.5,288.4,281.2,299.5z"/>
	<path class="st5" d="M219.5,236.3c-6.1,0.1-12.2-0.2-18.3,0.3c-5.2,0.5-6-1.7-5.9-6.2c0.2-22.2,0.1-44.5,0.1-66.7
		c0-2.6-0.4-5.3-0.7-8c0.4-1.6-0.4-3.3,0.3-4.9c0.1-6.8,0.7-13.6,0.3-20.4c-0.3-5.3,2.8-4.6,6-4.5c3.1,0,6.5-0.8,6,4.5
		c-0.4,4.6-0.1,9.2-0.2,13.9c0,5.1,0.1,10.3,0.1,15.5c0,19.5,0.2,39-0.2,58.6c-0.1,5.7,1.7,7.1,7,6.6c5.8-0.5,11.7,0.1,17.6-0.2
		c3.4-0.1,5.1,0.9,4.6,4.4c0.8,6.1-2.6,7.8-7.9,7.6c-1.9,0-3.8-0.1-5.6-0.1C221.6,236.4,220.5,236.4,219.5,236.3z"/>
	<path class="st7" d="M222.6,236.5c1.9,0,3.8,0.1,5.6,0.1c0.4,2.7,3.5,4.3,3.4,7.3c-2.4,1.5-4.8,3.1-7.9,5.1c4,1,7.2,1.8,10.4,2.6
		c-0.6,3.2-3.6,6.5,0.1,9.7c-13.8-2.6-27.6-5.1-43.7-8.2c11.4-5.8,20.9-10.6,30.3-15.5C221.5,237.3,222,236.9,222.6,236.5z"/>
	<path class="st8" d="M243.2,142.2c-3.8,2.5-7.6,5-12,7.9c4.5,1.2,8.3,2.3,12.1,3.3c2.1,4.3,4.5,8.6,1.4,13.4
		c-4.4-1-8.8-1.9-13.2-2.9c0.5-3-4-1.1-3.6-3.4c1.2-8.3-2.3-16.1-2.2-24.3c5.3-2.7,10.3-6,16.1-7.6
		C239.9,133.5,243.1,137.7,243.2,142.2z"/>
	<path class="st9" d="M225.6,136.3c0,8.2,3.5,16,2.2,24.3c-0.4,2.3,4.1,0.4,3.6,3.4c-8.3-0.6-15.9-4.7-24.3-4.4
		c0-5.1-0.1-10.3-0.1-15.5C213.7,142.8,219.1,138.2,225.6,136.3z"/>
	<path class="st10" d="M290.2,83.2c12.2,2.9,24.5,5.7,38.6,9c-10.7,5.6-18.7,12-28.2,15.8c-0.3-2.5,1-5.2-1.5-7.2
		c2-1.3,3.9-2.6,6.9-4.5c-4.9-1.3-8.9-2.3-12.8-3.3C292.1,89.7,291.1,86.4,290.2,83.2z"/>
	<path class="st10" d="M329.8,170.9c-3.1,5.5-3.6,12.3-8.5,16.8c-0.3-0.3-0.7-0.7-1-1c1.5-2.5-0.8-2-1.9-2.3
		c-5-1.4-10.1-2.7-15.1-4.1c3.7-5.2,2.7-10-1.3-14.6C311.3,167.5,320.5,169.2,329.8,170.9z"/>
	<path class="st11" d="M302,165.7c4,4.6,5,9.4,1.3,14.6c-6.4-1-12.8-1.9-18.9-4.3c2.9-5.1-1-9.6-1.5-14.4
		C289.3,163,295.7,164.4,302,165.7z"/>
	<path class="st8" d="M231.6,243.9c0.2-3-2.9-4.5-3.4-7.3c5.3,0.2,8.7-1.5,7.9-7.6c6.7-3.1,13.4-6.1,20.2-9.2
		c-1.4,4.1-0.9,7.5,3.6,9.4C250.8,234.8,241.3,239.6,231.6,243.9z"/>
	<path class="st11" d="M290.2,83.2c1,3.2,1.9,6.5,2.9,9.8c-8.4-1.6-16.9-2.6-25-5.2c7.1-0.9,0.8-6.6,3.2-9.1
		C277.8,79.2,284,81,290.2,83.2z"/>
	<path class="st11" d="M307.9,203.7c-5.8,3.4-11.3,7.5-17.7,9.8c2.2-3.7,1.4-7.3,0-11c5.6-3.5,11.1-7,17.5-9
		C310.7,196.8,309.6,200.2,307.9,203.7z"/>
	<path class="st12" d="M281.2,299.5c-3.8-11-3.1-22.9-6.2-34.1c-0.5-1.8-0.6-3.7-0.9-5.6c7.2-0.6,9.8,2.2,8.9,9.8
		C281.7,279.5,281.7,289.5,281.2,299.5z"/>
	<path class="st13" d="M259.4,120c5-3.3,10.4-5.7,16-7.7c1.8,3-0.1,6.8,1.9,9.8c-4.5,3.3-9.1,6.3-14.2,8.5
		C258.1,128.3,260,123.7,259.4,120z"/>
	<path class="st13" d="M290.2,202.5c1.4,3.7,2.2,7.4,0,11c-5.3,2.8-10.7,5.5-16,8.3c-0.1-3.7-0.2-7.3-0.3-11
		C279,207.5,284.4,204.6,290.2,202.5z"/>
	<path class="st6" d="M244.7,166.9c3.1-4.9,0.7-9.1-1.4-13.4c5,0.5,9.9,1.3,14.6,3.2c0.8,4.5,2.7,8.9,1.4,13.6
		C254.2,169.9,249.4,168.5,244.7,166.9z"/>
	<path class="st6" d="M243.2,142.2c-0.2-4.5-3.4-8.7-1.6-13.5c3.6-2.5,7.5-4.6,11.8-5.8c-0.9,4.4,1,8.4,1.5,12.6
		C251,137.7,247.1,140,243.2,142.2z"/>
	<path class="st8" d="M261.1,257.1c-0.1,3.2-0.2,6.5-0.3,9.7c-4.9-1-9.8-1.9-14.7-2.9c-2.1-3.1-1.7-6.9-2.9-10.2
		c5.4,1.1,10.8,2.1,16.1,3.2C259.9,257.6,260.5,257.8,261.1,257.1L261.1,257.1z"/>
	<path class="st6" d="M259.9,229.2c-4.5-1.9-5-5.3-3.6-9.4c3.5-1.8,7-3.6,10.4-5.4c1,3.4,1.8,6.8,1.6,10.4
		C265.9,226.9,262.9,228.2,259.9,229.2z"/>
	<path class="st10" d="M316.7,200.4c0,0-5.4,4-8.8,3.2c1.7-3.4,2.8-6.8-0.2-10.2c3.7-3.1,8.3-4.6,12.6-6.7c0.3,0.3,0.7,0.7,1,1
		C319.8,192,318.2,196.2,316.7,200.4"/>
	<path class="st9" d="M243.2,253.7c1.2,3.3,0.8,7.1,2.9,10.2c-3.9-0.9-7.9-1.7-11.8-2.6c-3.8-3.2-0.7-6.5-0.1-9.7
		C237.2,252.3,240.5,251.7,243.2,253.7z"/>
	<path class="st9" d="M299,100.8c2.5,2,1.2,4.8,1.5,7.2c-3.3,2.1-6.6,4.1-9.9,6.2c-1.7-2.7-1.9-5.6-1.8-8.7
		C292.1,103.6,295.1,101.2,299,100.8z"/>
	<path class="st12" d="M259.3,170.2c1.3-4.7-0.6-9.1-1.4-13.6c3-0.1,5.9,0.3,8.6,1.7c-2.3,4.6,0,9.2,0.1,13.8
		C264.2,171.5,261.5,171.9,259.3,170.2z"/>
	<path class="st12" d="M254.9,135.5c-0.4-4.2-2.4-8.2-1.5-12.6c1.8-1.4,3.6-2.6,5.9-2.9c0.6,3.8-1.3,8.4,3.7,10.6
		C260.3,132.2,257.6,133.9,254.9,135.5z"/>
	<path class="st6" d="M277.3,122.1c-2.1-3-0.1-6.8-1.9-9.8c2.1-2,4.8-3,7.6-3.7c0.4,3.2,0.9,6.4,1.3,9.5
		C281.9,119.4,279.6,120.7,277.3,122.1z"/>
	<path class="st13" d="M266.6,172.1c-0.2-4.6-2.4-9.1-0.1-13.8c1.1,0.2,2.2,0.5,3.4,0.7c2.2,4.5,1.9,9.5,2.7,14.3
		c-1-0.2-1.9-0.3-2.9-0.5c-0.8-0.8-1.6-1-2.6-0.5L266.6,172.1z"/>
	<path class="st12" d="M283,161.6c0.5,4.8,4.4,9.2,1.5,14.4c-1.6-0.3-3.1-0.6-4.7-0.9c2-4.6-3.1-9.3,0-13.9
		C280.9,161.3,281.9,161.5,283,161.6z"/>
	<path class="st12" d="M268.3,224.7c0.2-3.6-0.6-7-1.6-10.4c2.1-1.7,4.4-3,7.1-3.6c0.1,3.7,0.2,7.3,0.3,11
		C272.6,223.4,270.5,224.2,268.3,224.7z"/>
	<path class="st11" d="M284.3,118.1c-0.4-3.2-0.9-6.4-1.3-9.5c2-1,3.9-2,5.9-3c-0.1,3,0.1,6,1.8,8.7
		C288.9,116.2,286.6,117.2,284.3,118.1z"/>
	<path class="st13" d="M279.8,161.2c-3.1,4.6,1.9,9.3,0,13.9c-2.2-0.6-4.5-1.1-6.7-1.7c2.7-1.1,4.4-2.6,2.9-5.9
		c-1.1-2.4-1.3-4.9-0.4-7.5C277,160.4,278.4,160.8,279.8,161.2z"/>
	<path class="st5" d="M275.5,160c-0.9,2.5-0.7,5.1,0.4,7.5c1.5,3.3-0.2,4.8-2.9,5.9l-0.5-0.2c-0.8-4.8-0.5-9.8-2.7-14.3
		C271.7,159.3,273.6,159.7,275.5,160z"/>
	<path class="st12" d="M249.3,64c2.1,6.7,3.5,13.4,2.8,20.4c-4,0.4-3.2-2.6-3.2-4.8C248.9,74.5,249.1,69.2,249.3,64z"/>
	<path class="st13" d="M271.3,78.5c0,0-0.3,0-1.6-0.6c-7.9-0.6-10.5-4.9-11-12.8c-1.5-19.9-4.1-39.7-6.3-59.6
		c-2.7,11.9-1.9,24.1-2.6,36.2c-0.7,1.1-0.7,2.2-0.2,3.4c-0.1,4.3-0.2,8.6-0.3,12.9c-0.1,0.6-0.1,1.1-0.1,1.7
		c0.1,1.4,0.1,2.9,0.1,4.4c2.1,6.7,3.5,13.4,2.8,20.4c5.2,2,10.6,2.6,16.1,3.2C275.2,86.8,268.9,81.1,271.3,78.5z"/>
	<path class="st6" d="M261.2,257.1c-0.7,0.7-1.3,0.5-1.8-0.2C260,257,260.6,257,261.2,257.1z"/>
	<path class="st10" d="M341.6,174c5.2,1,10.4,2.1,17.2,3.5c-8.5,4.7-15.4,9-23.1,11.9C336.6,183.9,338.7,178.8,341.6,174z"/>
	<path class="st12" d="M269.7,172.8c-0.9-0.2-1.8-0.4-2.6-0.5C268,171.8,268.9,172,269.7,172.8z"/>
	<g>
		<path d="M329.1,269.7c-0.5,2-2.9,3.1-4.7,2c-3.4-2.2-8.9-1.4-9.1,3.5c0,7.1,16.4,4.1,16.4,18.3c1.5,20.3-29.6,15.5-24.5,5
			c0.9-2,3.7-2.3,5.1-0.7c3.5,4,10.8,4,11.1-2.7c0-0.3,0-0.6-0.1-0.9c-2.1-8.9-17.5-6.1-16.3-18
			C305.7,260.7,331.1,260.9,329.1,269.7z"/>
		<path d="M354.4,307.9c-27,0.9-26.8-45.4,0-44.4C381.2,262.6,381.4,308.8,354.4,307.9z M354.4,271.6c-15.7,0.1-16.7,27.8,0,28.2
			C371.1,299.4,370.1,271.8,354.4,271.6z"/>
		<path d="M390,299.7h5.1c1.7,0,3.1,1.4,3.1,3.1v0.9c0,1.7-1.4,3.1-3.1,3.1h-13.1c-1.7,0-3.1-1.4-3.1-3.1v-35.9
			c0-1.7,1.4-3.1,3.1-3.1h1.8c1.7,0,3.1,1.4,3.1,3.1v28.7C386.8,298.2,388.2,299.7,390,299.7z"/>
		<path d="M403.9,264.6h1.9c1.7,0,3.1,1.4,3.2,3c0.2,10.3-4.3,31.6,6.6,33c0.3,0,0.5,0,0.8,0c10.9-1.4,6.4-22.8,6.6-33
			c0-1.7,1.5-3,3.2-3h1.9c1.8,0,3.2,1.4,3.1,3.2c-0.2,14.4,5,40.7-15.2,40.1c-20.1,0.6-15-25.7-15.2-40.1
			C400.7,266,402.1,264.6,403.9,264.6z"/>
		<path d="M447.2,306.8h-1.8c-1.7,0-3.1-1.4-3.1-3.1v-28.7c0-1.7-1.4-3.1-3.1-3.1h-2c-1.7,0-3.1-1.4-3.1-3.1v-0.9
			c0-1.7,1.4-3.1,3.1-3.1h18.4c1.7,0,3.1,1.4,3.1,3.1v0.9c0,1.7-1.4,3.1-3.1,3.1h-2c-1.7,0-3.1,1.4-3.1,3.1v28.7
			C450.4,305.4,449,306.8,447.2,306.8z"/>
		<path d="M466.6,306.8h-1.8c-1.7,0-3.1-1.4-3.1-3.1v-35.9c0-1.7,1.4-3.1,3.1-3.1h1.8c1.7,0,3.1,1.4,3.1,3.1v35.9
			C469.7,305.4,468.3,306.8,466.6,306.8z"/>
		<path d="M494.1,307.9c-27,0.9-26.8-45.4,0-44.4C520.9,262.6,521.1,308.8,494.1,307.9z M494.1,271.6c-15.7,0.1-16.7,27.8,0,28.2
			C510.8,299.4,509.8,271.8,494.1,271.6z"/>
		<path d="M518.5,266.7c0-1.7,1.4-3.1,3.2-3.1h2.7c0.1,0,9.7,13.2,16.2,22c1.8,2.5,5.7,1.2,5.7-1.9v-15.8c0-1.7,1.4-3.1,3.2-3.1h1.8
			c1.7,0,3.2,1.4,3.2,3.1v36.7c0,1.7-1.4,3.1-3.2,3.1h-2.7c-0.1,0-9.7-13.2-16.2-22c-1.8-2.5-5.7-1.2-5.7,1.9v16.1
			c0,1.7-1.4,3.1-3.2,3.1h-1.8c-1.7,0-3.2-1.4-3.2-3.1L518.5,266.7L518.5,266.7z"/>
		<path d="M582.1,269.7c-0.5,2-2.9,3.1-4.7,2c-3.4-2.2-8.9-1.4-9.1,3.5c0,7.1,16.4,4.1,16.4,18.3c1.5,20.3-29.6,15.5-24.5,5
			c0.9-2,3.7-2.3,5.1-0.7c3.5,4,10.8,4,11.1-2.7c0-0.3,0-0.6-0.1-0.9c-2.1-8.9-17.5-6.1-16.3-18
			C558.7,260.7,584.1,260.9,582.1,269.7z"/>
	</g>
</g>
</svg>
